Results
version=1
nRows=4
nColumns=213
inDegrees=yes
endheader
time	platform_rx	platform_ry	platform_rz	platform_ty	pelvis_tilt	pelvis_list	pelvis_rotation	pelvis_tx	pelvis_ty	pelvis_tz	hip_flexion_r	hip_adduction_r	hip_rotation_r	knee_angle_r	knee_angle_r_beta	ankle_angle_r	subtalar_angle_r	mtp_angle_r	hip_flexion_l	hip_adduction_l	hip_rotation_l	knee_angle_l	knee_angle_l_beta	ankle_angle_l	subtalar_angle_l	mtp_angle_l	lumbar_extension	lumbar_bending	lumbar_rotation	arm_flex_r	arm_add_r	arm_rot_r	elbow_flex_r	pro_sup_r	wrist_flex_r	wrist_dev_r	arm_flex_l	arm_add_l	arm_rot_l	elbow_flex_l	pro_sup_l	wrist_flex_l	wrist_dev_l	platform_rx_u	platform_ry_u	platform_rz_u	platform_ty_u	pelvis_tilt_u	pelvis_list_u	pelvis_rotation_u	pelvis_tx_u	pelvis_ty_u	pelvis_tz_u	hip_flexion_r_u	hip_adduction_r_u	hip_rotation_r_u	knee_angle_r_u	knee_angle_r_beta_u	ankle_angle_r_u	subtalar_angle_r_u	mtp_angle_r_u	hip_flexion_l_u	hip_adduction_l_u	hip_rotation_l_u	knee_angle_l_u	knee_angle_l_beta_u	ankle_angle_l_u	subtalar_angle_l_u	mtp_angle_l_u	lumbar_extension_u	lumbar_bending_u	lumbar_rotation_u	arm_flex_r_u	arm_add_r_u	arm_rot_r_u	elbow_flex_r_u	pro_sup_r_u	wrist_flex_r_u	wrist_dev_r_u	arm_flex_l_u	arm_add_l_u	arm_rot_l_u	elbow_flex_l_u	pro_sup_l_u	wrist_flex_l_u	wrist_dev_l_u	addbrev_r.activation	addlong_r.activation	addlong_r.fiber_length	addmagDist_r.activation	addmagIsch_r.activation	addmagIsch_r.fiber_length	addmagMid_r.activation	addmagProx_r.activation	bflh_r.activation	bflh_r.fiber_length	bfsh_r.activation	edl_r.activation	edl_r.fiber_length	ehl_r.activation	ehl_r.fiber_length	fdl_r.activation	fdl_r.fiber_length	fhl_r.activation	fhl_r.fiber_length	gaslat_r.activation	gaslat_r.fiber_length	gasmed_r.activation	gasmed_r.fiber_length	glmax1_r.activation	glmax2_r.activation	glmax3_r.activation	glmed1_r.activation	glmed2_r.activation	glmed3_r.activation	glmin1_r.activation	glmin2_r.activation	glmin3_r.activation	glmin3_r.fiber_length	grac_r.activation	iliacus_r.activation	perbrev_r.activation	perbrev_r.fiber_length	perlong_r.activation	perlong_r.fiber_length	piri_r.activation	piri_r.fiber_length	psoas_r.activation	recfem_r.activation	recfem_r.fiber_length	sart_r.activation	semimem_r.activation	semimem_r.fiber_length	semiten_r.activation	semiten_r.fiber_length	soleus_r.activation	soleus_r.fiber_length	tfl_r.activation	tfl_r.fiber_length	tibant_r.activation	tibant_r.fiber_length	tibpost_r.activation	tibpost_r.fiber_length	vasint_r.activation	vasint_r.fiber_length	vaslat_r.activation	vaslat_r.fiber_length	vasmed_r.activation	vasmed_r.fiber_length	addbrev_l.activation	addlong_l.activation	addlong_l.fiber_length	addmagDist_l.activation	addmagIsch_l.activation	addmagIsch_l.fiber_length	addmagMid_l.activation	addmagProx_l.activation	bflh_l.activation	bflh_l.fiber_length	bfsh_l.activation	edl_l.activation	edl_l.fiber_length	ehl_l.activation	ehl_l.fiber_length	fdl_l.activation	fdl_l.fiber_length	fhl_l.activation	fhl_l.fiber_length	gaslat_l.activation	gaslat_l.fiber_length	gasmed_l.activation	gasmed_l.fiber_length	glmax1_l.activation	glmax2_l.activation	glmax3_l.activation	glmed1_l.activation	glmed2_l.activation	glmed3_l.activation	glmin1_l.activation	glmin2_l.activation	glmin3_l.activation	glmin3_l.fiber_length	grac_l.activation	iliacus_l.activation	perbrev_l.activation	perbrev_l.fiber_length	perlong_l.activation	perlong_l.fiber_length	piri_l.activation	piri_l.fiber_length	psoas_l.activation	recfem_l.activation	recfem_l.fiber_length	sart_l.activation	semimem_l.activation	semimem_l.fiber_length	semiten_l.activation	semiten_l.fiber_length	soleus_l.activation	soleus_l.fiber_length	tfl_l.activation	tfl_l.fiber_length	tibant_l.activation	tibant_l.fiber_length	tibpost_l.activation	tibpost_l.fiber_length	vasint_l.activation	vasint_l.fiber_length	vaslat_l.activation	vaslat_l.fiber_length	vasmed_l.activation	vasmed_l.fiber_length
      0.00785899	     20.00000000	      0.00000000	      0.00000000	      0.25000000	    -20.27522127	     -0.00508333	     -0.00556565	      0.03716554	      0.75707361	      0.00002008	     64.60620220	    -16.18881468	    -10.05387974	     69.99750290	     69.99750290	     19.63762943	     -0.85722270	      0.00000000	     64.60605339	    -16.22065376	    -10.02099007	     70.00125759	     70.00125759	     19.82197440	      0.00000000	      0.00000000	     -0.87895282	      0.00464429	      0.00561208	     69.17063880	     -0.00709596	     89.85238728	      0.14169795	      0.11808344	     -0.00000000	     -0.00000000	     69.17095356	     -0.00780891	     89.85302725	      0.14223598	      0.11823288	     -0.00000000	      0.00000000	     -0.00000000	      0.00000000	      0.00000000	      0.00000000	    180.17322369	     -1.14143820	     -1.22001211	      0.04297059	      0.27198797	      0.00453911	   -217.04000988	     -5.64858197	    -14.45362406	    -67.32693442	    -67.32693442	  -1054.71221804	   -198.37351126	      0.00000000	   -217.05505290	    -12.84575756	     -6.94748319	    -66.50531163	    -66.50531163	  -1012.84279779	      0.00000000	      0.00000000	   -221.85427444	      1.01207557	      1.24881275	     42.85344362	     -1.77905903	     -0.98887782	      5.13741430	     -0.74854848	     -0.00000000	      0.00000000	     42.93257360	     -1.95847221	     -0.84014854	      5.27252793	     -0.71104186	     -0.00000000	     -0.00000000	      0.01000000	      0.01000000	      0.09560177	      0.01000000	      0.01000000	      0.19606459	      0.01000000	      0.01000000	      0.01000000	      0.11550032	      0.01000000	      0.01000000	      0.05639552	      0.01000000	      0.06458777	      0.01000000	      0.04737126	      0.01000000	      0.05543546	      0.01000000	      0.06016056	      0.01000000	      0.05117005	      0.01000000	      0.01000000	      0.01000000	      0.01000000	      0.01000000	      0.01000000	      0.01000000	      0.01000000	      0.01000000	      0.04398780	      0.01000000	      0.01000000	      0.01000000	      0.04993581	      0.01000000	      0.05645850	      0.01000000	      0.02866257	      0.01000000	      0.01000000	      0.06196961	      0.01000000	      0.01000000	      0.07620484	      0.01000000	      0.22592257	      0.01000000	      0.05813479	      0.01000000	      0.04828168	      0.01000000	      0.05143519	      0.01000000	      0.04162627	      0.01000000	      0.12655677	      0.01000000	      0.12401733	      0.01000000	      0.12192914	      0.01000000	      0.01000000	      0.09563788	      0.01000000	      0.01000000	      0.19607591	      0.01000000	      0.01000000	      0.01000000	      0.11550362	      0.01000000	      0.01000000	      0.05647482	      0.01000000	      0.06451054	      0.01000000	      0.04729864	      0.01000000	      0.05535251	      0.01000000	      0.06016753	      0.01000000	      0.05117829	      0.01000000	      0.01000000	      0.01000000	      0.01000000	      0.01000000	      0.01000000	      0.01000000	      0.01000000	      0.01000000	      0.04395968	      0.01000000	      0.01000000	      0.01000000	      0.05027398	      0.01000000	      0.05671565	      0.01000000	      0.02864641	      0.01000000	      0.01000000	      0.06196635	      0.01000000	      0.01000000	      0.07620560	      0.01000000	      0.22592743	      0.01000000	      0.05816079	      0.01000000	      0.04824365	      0.01000000	      0.05120376	      0.01000000	      0.04152826	      0.01000000	      0.12655833	      0.01000000	      0.12401871	      0.01000000	      0.12193052
      0.00877831	     20.00000000	      0.00000000	      0.00000000	      0.25000000	    -20.10007444	     -0.00616973	     -0.00671965	      0.03720750	      0.75733814	      0.00002440	     64.39474072	    -16.19427358	    -10.06811942	     69.93090104	     69.93090104	     18.62447178	     -1.04684688	      0.00000000	     64.39458276	    -16.23296615	    -10.02807513	     69.93542966	     69.93542966	     18.84867611	      0.00000000	      0.00000000	     -1.09454660	      0.00560126	      0.00679768	     69.21224669	     -0.00882456	     89.85142259	      0.14668945	      0.11737639	     -0.00000000	     -0.00000000	     69.21263814	     -0.00971132	     89.85220671	      0.14735842	      0.11756217	     -0.00000000	     -0.00000000	     -0.00000000	      0.00000000	     -0.00000000	     -0.00000000	    200.85669293	     -1.22012717	     -1.28785412	      0.04833089	      0.30351029	      0.00485328	   -243.03806969	     -6.22307927	    -16.54480611	    -77.66366852	    -77.66366852	  -1148.20815506	   -213.85741045	      0.00000000	   -243.04246528	    -13.92364197	     -8.49944151	    -76.80425219	    -76.80425219	  -1103.43991801	      0.00000000	      0.00000000	   -247.15923635	      1.06761005	      1.32812871	     47.65945616	     -1.98151910	     -1.11046631	      5.72161526	     -0.78623417	     -0.00000000	      0.00000000	     47.74713063	     -2.18014252	     -0.94564558	      5.87126944	     -0.74470645	     -0.00000000	     -0.00000000	      0.01000000	      0.01000000	      0.09564286	      0.01000000	      0.01000000	      0.19588694	      0.01000000	      0.01000000	      0.01000000	      0.11537507	      0.01000000	      0.01000000	      0.05694677	      0.01000000	      0.06524262	      0.01000000	      0.04735819	      0.01000000	      0.05534762	      0.01000000	      0.05996154	      0.01000000	      0.05102251	      0.01000000	      0.01000000	      0.01000000	      0.01000000	      0.01000000	      0.01000000	      0.01000000	      0.01000000	      0.01000000	      0.04394224	      0.01000000	      0.01000000	      0.01000000	      0.04978963	      0.01000000	      0.05629757	      0.01000000	      0.02861180	      0.01000000	      0.01000000	      0.06208661	      0.01000000	      0.01000000	      0.07610961	      0.01000000	      0.22578067	      0.01000000	      0.05775825	      0.01000000	      0.04848285	      0.01000000	      0.05218872	      0.01000000	      0.04159354	      0.01000000	      0.12652789	      0.01000000	      0.12399167	      0.01000000	      0.12190371	      0.01000000	      0.01000000	      0.09568767	      0.01000000	      0.01000000	      0.19590194	      0.01000000	      0.01000000	      0.01000000	      0.11537926	      0.01000000	      0.01000000	      0.05704625	      0.01000000	      0.06514375	      0.01000000	      0.04725890	      0.01000000	      0.05523914	      0.01000000	      0.05996808	      0.01000000	      0.05103074	      0.01000000	      0.01000000	      0.01000000	      0.01000000	      0.01000000	      0.01000000	      0.01000000	      0.01000000	      0.01000000	      0.04390772	      0.01000000	      0.01000000	      0.01000000	      0.05021176	      0.01000000	      0.05662568	      0.01000000	      0.02859148	      0.01000000	      0.01000000	      0.06208246	      0.01000000	      0.01000000	      0.07611061	      0.01000000	      0.22578673	      0.01000000	      0.05779063	      0.01000000	      0.04843548	      0.01000000	      0.05190284	      0.01000000	      0.04146161	      0.01000000	      0.12652981	      0.01000000	      0.12399338	      0.01000000	      0.12190541
      0.00969763	     20.00000000	      0.00000000	      0.00000000	      0.25000000	    -19.90592550	     -0.00732322	     -0.00792812	      0.03725444	      0.75763167	      0.00002899	     64.15926097	    -16.20024820	    -10.08433759	     69.85452807	     69.85452807	     17.52890375	     -1.24983153	      0.00000000	     64.15910566	    -16.24622231	    -10.03668155	     69.85985800	     69.85985800	     17.79539400	      0.00000000	      0.00000000	     -1.33336396	      0.00660324	      0.00804921	     69.25825629	     -0.01073927	     89.85034430	      0.15221784	      0.11664459	     -0.00000000	     -0.00000000	     69.25873216	     -0.01181719	     89.85128713	      0.15303087	      0.11687034	     -0.00000000	     -0.00000000	     -0.00000000	      0.00000000	      0.00000000	      0.00000000	    221.51330129	     -1.28751158	     -1.33823066	      0.05380328	      0.33507400	      0.00511758	   -269.29702627	     -6.76999301	    -18.75897871	    -88.58390524	    -88.58390524	  -1233.90833532	   -227.40877082	      0.00000000	   -269.28583578	    -14.89796761	    -10.25922205	    -87.70275199	    -87.70275199	  -1186.77833041	      0.00000000	      0.00000000	   -272.37735225	      1.11014732	      1.39196862	     52.42907221	     -2.18399592	     -1.23608241	      6.30546969	     -0.80193387	     -0.00000000	      0.00000000	     52.52498140	     -2.40107842	     -1.05574078	      6.46912166	     -0.75654297	     -0.00000000	     -0.00000000	      0.01000000	      0.01000000	      0.09568965	      0.01000000	      0.01000000	      0.19568066	      0.01000000	      0.01000000	      0.01000000	      0.11523453	      0.01000000	      0.01000000	      0.05754966	      0.01000000	      0.06595973	      0.01000000	      0.04734200	      0.01000000	      0.05524634	      0.01000000	      0.05977340	      0.01000000	      0.05087498	      0.01000000	      0.01000000	      0.01000000	      0.01000000	      0.01000000	      0.01000000	      0.01000000	      0.01000000	      0.01000000	      0.04389119	      0.01000000	      0.01000000	      0.01000000	      0.04962974	      0.01000000	      0.05611914	      0.01000000	      0.02855426	      0.01000000	      0.01000000	      0.06221804	      0.01000000	      0.01000000	      0.07600165	      0.01000000	      0.22562325	      0.01000000	      0.05733466	      0.01000000	      0.04870877	      0.01000000	      0.05300577	      0.01000000	      0.04155433	      0.01000000	      0.12649443	      0.01000000	      0.12396190	      0.01000000	      0.12187426	      0.01000000	      0.01000000	      0.09574361	      0.01000000	      0.01000000	      0.19569672	      0.01000000	      0.01000000	      0.01000000	      0.11523971	      0.01000000	      0.01000000	      0.05767235	      0.01000000	      0.06583622	      0.01000000	      0.04721060	      0.01000000	      0.05511020	      0.01000000	      0.05977962	      0.01000000	      0.05088321	      0.01000000	      0.01000000	      0.01000000	      0.01000000	      0.01000000	      0.01000000	      0.01000000	      0.01000000	      0.01000000	      0.04384968	      0.01000000	      0.01000000	      0.01000000	      0.05014194	      0.01000000	      0.05652390	      0.01000000	      0.02852951	      0.01000000	      0.01000000	      0.06221291	      0.01000000	      0.01000000	      0.07600294	      0.01000000	      0.22563064	      0.01000000	      0.05737515	      0.01000000	      0.04865137	      0.01000000	      0.05266174	      0.01000000	      0.04138431	      0.01000000	      0.12649674	      0.01000000	      0.12396394	      0.01000000	      0.12187629
      0.01068069	     20.00000000	      0.00000000	      0.00000000	      0.25000000	    -19.67731227	     -0.00861871	     -0.00926193	      0.03731027	      0.75797769	      0.00003414	     63.88058942	    -16.20717786	    -10.10399909	     69.76144466	     69.76144466	     16.27452171	     -1.47956873	      0.00000000	     63.88045498	    -16.26133028	    -10.04779018	     69.76764373	     69.76764373	     16.58833166	      0.00000000	      0.00000000	     -1.61434933	      0.00771062	      0.00944379	     69.31228828	     -0.01299281	     89.84906105	      0.15872351	      0.11585901	     -0.00000000	     -0.00000000	     69.31286262	     -0.01429348	     89.85018906	      0.15970452	      0.11613133	     -0.00000000	     -0.00000000	      0.00000000	      0.00000000	     -0.00000000	      0.00000000	    243.59331180	     -1.34529374	     -1.37166099	      0.05979640	      0.36891231	      0.00534074	   -297.71276997	     -7.32264986	    -21.26535830	   -100.89896380	   -100.89896380	  -1316.50789212	   -239.57080376	      0.00000000	   -297.68132978	    -15.81623039	    -12.38323048	   -100.01627316	   -100.01627316	  -1267.47551520	      0.00000000	      0.00000000	   -299.26680710	      1.13965765	      1.44186969	     57.49085657	     -2.40078926	     -1.37565476	      6.93024499	     -0.79130196	     -0.00000000	      0.00000000	     57.59525023	     -2.63682544	     -1.17930470	      7.10830147	     -0.74194692	      0.00000000	     -0.00000000	      0.01000000	      0.01000000	      0.09574626	      0.01000000	      0.01000000	      0.19545560	      0.01000000	      0.01000000	      0.01000000	      0.11506747	      0.01000000	      0.01000000	      0.05824859	      0.01000000	      0.06678755	      0.01000000	      0.04732069	      0.01000000	      0.05512404	      0.01000000	      0.05958084	      0.01000000	      0.05071722	      0.01000000	      0.01000000	      0.01000000	      0.01000000	      0.01000000	      0.01000000	      0.01000000	      0.01000000	      0.01000000	      0.04383052	      0.01000000	      0.01000000	      0.01000000	      0.04944488	      0.01000000	      0.05591052	      0.01000000	      0.02848528	      0.01000000	      0.01000000	      0.06237410	      0.01000000	      0.01000000	      0.07587271	      0.01000000	      0.22543788	      0.01000000	      0.05684042	      0.01000000	      0.04897778	      0.01000000	      0.05394760	      0.01000000	      0.04150506	      0.01000000	      0.12645327	      0.01000000	      0.12392520	      0.01000000	      0.12183802	      0.01000000	      0.01000000	      0.09581050	      0.01000000	      0.01000000	      0.19547884	      0.01000000	      0.01000000	      0.01000000	      0.11507383	      0.01000000	      0.01000000	      0.05839785	      0.01000000	      0.06663576	      0.01000000	      0.04714911	      0.01000000	      0.05495642	      0.01000000	      0.05958683	      0.01000000	      0.05072546	      0.01000000	      0.01000000	      0.01000000	      0.01000000	      0.01000000	      0.01000000	      0.01000000	      0.01000000	      0.01000000	      0.04378123	      0.01000000	      0.01000000	      0.01000000	      0.05005913	      0.01000000	      0.05640284	      0.01000000	      0.02845556	      0.01000000	      0.01000000	      0.06236784	      0.01000000	      0.01000000	      0.07587437	      0.01000000	      0.22544683	      0.01000000	      0.05688894	      0.01000000	      0.04890900	      0.01000000	      0.05353729	      0.01000000	      0.04129025	      0.01000000	      0.12645599	      0.01000000	      0.12392762	      0.01000000	      0.12184042
